<?xml version="1.0" encoding="utf-8"?>
<!-- Generator: Adobe Illustrator 22.0.1, SVG Export Plug-In . SVG Version: 6.00 Build 0)  -->
<svg version="1.1" id="Layer_1" xmlns="http://www.w3.org/2000/svg" xmlns:xlink="http://www.w3.org/1999/xlink" x="0px" y="0px"
	 viewBox="0 0 47 47" style="enable-background:new 0 0 47 47;" xml:space="preserve">
<path d="M46.8,23.2L24.2,4.3c-0.1-0.1-0.3-0.1-0.5-0.1c-0.2,0-0.3,0-0.5,0.1L0.6,23.2c-0.2,0.2-0.3,0.5-0.1,0.7
	c0.1,0.1,0.3,0.2,0.4,0.2c0.1,0,0.2,0,0.3-0.1l5.8-4.8v23.3H5.5c-0.3,0-0.5,0.2-0.5,0.5s0.2,0.5,0.5,0.5h36.7c0.3,0,0.5-0.2,0.5-0.5
	s-0.2-0.5-0.5-0.5h-1.6V19.4l5.5,4.6c0.1,0.1,0.2,0.1,0.3,0.1c0.2,0,0.3-0.1,0.4-0.2C47.1,23.7,47,23.4,46.8,23.2z M39.5,42.5h-9.3
	V26.8c0-0.1,0-0.2-0.1-0.3c0-0.1,0.1-0.2,0.1-0.3c0-0.3-0.2-0.5-0.5-0.5H17.4c-0.3,0-0.5,0.2-0.5,0.5c0,0.1,0,0.2,0.1,0.3
	c0,0.1-0.1,0.2-0.1,0.3v15.4c0,0.1,0,0.2,0.1,0.3H8.1V18.3l15.6-13l15.9,13.3c0,0.1-0.1,0.2-0.1,0.3V42.5z M18,42.2V26.8h11.2v15.7
	H17.9C17.9,42.4,18,42.3,18,42.2z"/>
</svg>
