<?xml version="1.0" encoding="utf-8"?>
<!-- Generator: Adobe Illustrator 22.0.1, SVG Export Plug-In . SVG Version: 6.00 Build 0)  -->
<svg version="1.1" id="Layer_1" xmlns="http://www.w3.org/2000/svg" xmlns:xlink="http://www.w3.org/1999/xlink" x="0px" y="0px"
	 viewBox="0 0 47 47" style="enable-background:new 0 0 47 47;" xml:space="preserve">
<g>
	<path d="M46,41.8V38h0V6.3C46,4.5,44.5,3,42.7,3H25.5c-1.4,0-2.7,0.9-3.1,2.3C21.6,5,20.7,4.9,19.8,5c-1.4,0.2-2.2,0.6-2.8,1.4
		l-0.3-0.3l-0.8,0.8l2,2l0.8-0.8l-0.9-0.9c0.4-0.6,0.9-1,2.2-1.1c0.9-0.1,1.7,0,2.4,0.3V38h0v3.7c0,0.9,0.4,1.7,1,2.3
		c0.6,0.6,1.4,1,2.3,1h17.2c0.9,0,1.7-0.4,2.3-1c0,0,0.1-0.1,0.1-0.1c0,0,0.1-0.1,0.1-0.1C45.7,43.3,46,42.5,46,41.8z M42.7,43.9
		H25.5c-0.7,0-1.3-0.3-1.7-0.8c-0.3-0.4-0.5-0.8-0.5-1.4v-2.6h21.5v2.6c0,0.4-0.1,0.9-0.4,1.2C44.1,43.5,43.5,43.9,42.7,43.9z
		 M23.4,7c0.1,0.1,0.2,0.2,0.3,0.3c0.6,0.5,1,1.2,1,1.7h1.1c0-0.8-0.5-1.8-1.4-2.5c-0.3-0.3-0.6-0.5-1-0.7c0.2-0.9,1.1-1.6,2.1-1.6
		h17.2c1.2,0,2.2,1,2.2,2.2V38H23.4V7z"/>
	<path d="M34.1,39.5c-1.1,0-2,0.9-2,2c0,1.1,0.9,2,2,2c1.1,0,2-0.9,2-2C36.1,40.4,35.2,39.5,34.1,39.5z M34.1,42.4
		c-0.5,0-0.9-0.4-0.9-0.9c0-0.5,0.4-0.9,0.9-0.9c0.5,0,0.9,0.4,0.9,0.9C35,42,34.6,42.4,34.1,42.4z"/>
	<path d="M19.1,7.1l0.5,0.5v5.1c0,0.3-0.1,0.6-0.3,0.7l-9.5,9.4c-0.4,0.4-1.1,0.4-1.5,0l-6.7-6.7c-0.2-0.2-0.3-0.5-0.3-0.7
		c0-0.3,0.1-0.5,0.3-0.7l9.4-9.4c0.1-0.1,0.3-0.2,0.7-0.2H17l0.4,0.4l0.7-0.8L17.4,4h-5.5c-0.5,0-1.1,0.1-1.5,0.5l-9.4,9.4
		c-0.4,0.4-0.6,0.9-0.6,1.5c0,0.6,0.2,1.1,0.6,1.5l6.7,6.7c0.4,0.4,1,0.6,1.5,0.6c0.5,0,1.1-0.2,1.5-0.6l9.5-9.4
		c0.4-0.4,0.6-0.9,0.6-1.5V7.1l-0.9-0.8L19.1,7.1z"/>
	<path d="M10.5,12.6v-1c0-0.7-0.6-1.3-1.3-1.3h-1C7.5,10.4,7,11,7,11.7v1c0,0.7,0.6,1.3,1.3,1.3h1C9.9,13.9,10.5,13.3,10.5,12.6z
		 M9.4,12.6c0,0.1-0.1,0.2-0.2,0.2h-1c-0.1,0-0.2-0.1-0.2-0.2v-1c0-0.1,0.1-0.2,0.2-0.2h1c0.1,0,0.2,0.1,0.2,0.2V12.6z"/>
	<path d="M12.6,17.3h1c0.7,0,1.3-0.6,1.3-1.3v-1c0-0.7-0.6-1.3-1.3-1.3h-1c-0.7,0-1.3,0.6-1.3,1.3v1C11.4,16.8,11.9,17.3,12.6,17.3z
		 M12.4,15.1c0-0.1,0.1-0.2,0.2-0.2h1c0.1,0,0.2,0.1,0.2,0.2v1c0,0.1-0.1,0.2-0.2,0.2h-1c-0.1,0-0.2-0.1-0.2-0.2V15.1z"/>
	<rect x="7" y="13.3" transform="matrix(0.4961 -0.8682 0.8682 0.4961 -6.5294 16.4655)" width="7.9" height="1.1"/>
</g>
</svg>
