<?xml version="1.0" encoding="utf-8"?>
<!-- Generator: Adobe Illustrator 22.0.1, SVG Export Plug-In . SVG Version: 6.00 Build 0)  -->
<svg version="1.1" id="Layer_1" xmlns="http://www.w3.org/2000/svg" xmlns:xlink="http://www.w3.org/1999/xlink" x="0px" y="0px"
	 viewBox="0 0 47 47" style="enable-background:new 0 0 47 47;" xml:space="preserve">
<g>
	<path d="M36.6,28.3l-8.7-4C28,24,28,23.7,28,23.4v-1.1c2.6-2,3-5.3,3.4-8.2c0.2-1.9,0.3-4.1-0.7-6c-0.9-1.6-2.4-2.9-4.4-3.6
		c-2-0.7-4.3-0.7-6.3,0c-2,0.7-3.5,1.9-4.4,3.6c-1,1.9-0.9,4.1-0.7,6c0.4,2.9,0.8,6.1,3.4,8.2v1.1c0,0.3,0,0.6,0.1,0.9l-8.7,4
		c-5.9,2.9-5.9,13.3-5.9,13.8c0,0.4,0.3,0.7,0.7,0.7h0c0.4,0,0.7-0.3,0.7-0.7c0-0.1,0.1-10,5.1-12.5l5.1-2.4l-0.6,4.4
		c0,0.2,0.1,0.5,0.2,0.6c0.1,0.1,0.3,0.2,0.5,0.2c0.1,0,0.1,0,0.2,0c2.1-0.5,3.6-1.4,4.6-2.3c0,0.6,0.2,1.3,0.7,1.8
		c-0.3,1.6-1.3,8.1-1.3,10.2c0,0.4,0.3,0.7,0.7,0.7c0.4,0,0.7-0.3,0.7-0.7c0-2.1,1.4-10.2,1.4-10.3c0-0.2,0-0.4-0.2-0.6
		c-1-1-0.3-2.5,0-3.1c0.3,0.1,0.6,0.1,0.9,0.1c0.3,0,0.6,0,0.9-0.1c0.3,0.6,1,2,0,3.1c-0.2,0.2-0.2,0.4-0.2,0.6
		c0,0.1,1.4,8.1,1.4,10.3c0,0.4,0.3,0.7,0.7,0.7c0.4,0,0.7-0.3,0.7-0.7c0-2-1.1-8.6-1.3-10.2c0.5-0.6,0.6-1.2,0.7-1.8
		c1.1,0.9,2.6,1.8,4.6,2.3c0.1,0,0.1,0,0.2,0c0.2,0,0.3-0.1,0.5-0.2c0.2-0.2,0.3-0.4,0.2-0.6l-0.6-4.4l5.1,2.4
		c5.1,2.5,5.2,12.4,5.2,12.5c0,0.4,0.3,0.7,0.7,0.7c0.4,0,0.7-0.3,0.7-0.7C42.5,41.6,42.5,31.2,36.6,28.3z M16.4,30.7l0.5-4.2l2-0.9
		c0.4,0.9,1.1,1.6,2,2C20.2,28.4,18.8,29.8,16.4,30.7z M19.7,23.4v-0.3c0.1,0.1,0.3,0.1,0.4,0.2c0.4,0.2,0.8,0,0.9-0.4
		c0.2-0.4,0-0.8-0.4-0.9c-3.5-1.5-3.9-4.7-4.3-8.1c-0.2-1.7-0.3-3.6,0.5-5.2c0.7-1.3,2-2.3,3.6-2.9c1.7-0.6,3.7-0.6,5.4,0
		c1.6,0.6,2.9,1.6,3.6,2.9c0.8,1.6,0.7,3.5,0.5,5.2c-0.4,3.4-0.8,6.6-4.3,8.1c-0.4,0.2-0.5,0.6-0.4,0.9c0.1,0.3,0.4,0.4,0.6,0.4
		c0.1,0,0.2,0,0.3-0.1c0.1-0.1,0.3-0.1,0.4-0.2v0.3c0,1.9-1.6,3.5-3.5,3.5S19.7,25.3,19.7,23.4z M29.9,30.7
		c-2.5-0.9-3.9-2.3-4.5-3.1c0.9-0.5,1.5-1.2,2-2l2,0.9L29.9,30.7z"/>
	<path d="M4.7,26.1l4.6-2c0.6,0.2,1.8,0.6,3.5,0.6c0.4,0,0.7-0.3,0.7-0.7s-0.3-0.7-0.7-0.7c-1.9,0-3.1-0.6-3.2-0.6
		c-0.2-0.1-0.4-0.1-0.6,0l-4.9,2.1C1.2,26.3,1,30.1,1,30.3v1.4c0,0.4,0.3,0.7,0.7,0.7s0.7-0.3,0.7-0.7l0-1.3
		C2.4,30.3,2.6,27.2,4.7,26.1z"/>
	<path d="M7.8,16.8c0.2,1.8,0.3,2.9,2.5,4.4c0.1,0.1,0.3,0.1,0.4,0.1c0.2,0,0.4-0.1,0.6-0.3c0.2-0.3,0.1-0.7-0.2-1
		c-1.7-1.1-1.7-1.7-1.9-3.4l0-0.4c-0.1-0.9-0.2-2,0.3-2.8c0.4-0.7,1.1-1.2,1.9-1.5c0.5-0.2,1-0.2,1.5-0.2c0.4,0,0.7-0.3,0.7-0.7
		c0-0.4-0.3-0.7-0.7-0.7h0c-0.6,0-1.3,0.1-1.9,0.3c-1.2,0.4-2.2,1.2-2.7,2.2c-0.6,1.2-0.6,2.5-0.4,3.7L7.8,16.8z"/>
	<path d="M45.3,30.3c0-0.2-0.2-4-3.2-5.4l-4.8-2.1c-0.2-0.1-0.4-0.1-0.6,0c0,0-1.3,0.6-3.2,0.6c-0.4,0-0.7,0.3-0.7,0.7
		s0.3,0.7,0.7,0.7c1.7,0,2.9-0.4,3.5-0.6l4.5,1.9c2.2,1.1,2.4,4.2,2.4,4.2v1.4c0,0.4,0.3,0.7,0.7,0.7s0.7-0.3,0.7-0.7L45.3,30.3z"/>
	<path d="M33.5,11.6c0.5,0,1,0.1,1.5,0.2c0.9,0.3,1.6,0.8,1.9,1.5c0.4,0.9,0.4,1.9,0.3,2.8l0,0.4c-0.2,1.7-0.3,2.3-1.9,3.4
		c-0.3,0.2-0.4,0.6-0.2,1c0.1,0.2,0.4,0.3,0.6,0.3c0.1,0,0.3,0,0.4-0.1c2.2-1.5,2.3-2.6,2.5-4.4l0-0.4c0.1-1.1,0.2-2.5-0.4-3.7
		c-0.5-1-1.5-1.8-2.7-2.2c-0.6-0.2-1.3-0.3-1.9-0.3c0,0,0,0,0,0c-0.4,0-0.7,0.3-0.7,0.7C32.8,11.3,33.2,11.6,33.5,11.6z"/>
</g>
</svg>
