<?xml version="1.0" encoding="utf-8"?>
<!-- Generator: Adobe Illustrator 22.0.1, SVG Export Plug-In . SVG Version: 6.00 Build 0)  -->
<svg version="1.1" id="Layer_1" xmlns="http://www.w3.org/2000/svg" xmlns:xlink="http://www.w3.org/1999/xlink" x="0px" y="0px"
	 viewBox="0 0 47 47" style="enable-background:new 0 0 47 47;" xml:space="preserve">
<g>
	<path d="M36,41.7v-3.7h0V6.6c0-1.8-1.4-3.2-3.2-3.2h-17c-1.8,0-3.2,1.4-3.2,3.2v31.4h0v3.7c0,0.9,0.4,1.7,0.9,2.3
		c0.6,0.6,1.4,0.9,2.3,0.9h17c0.9,0,1.7-0.4,2.3-0.9c0,0,0.1-0.1,0.1-0.1c0,0,0.1-0.1,0.1-0.1C35.7,43.2,36,42.5,36,41.7z
		 M32.8,43.9h-17c-0.7,0-1.3-0.3-1.6-0.8c-0.3-0.4-0.5-0.8-0.5-1.4v-2.6h21.3v2.6c0,0.4-0.1,0.8-0.4,1.2
		C34.2,43.5,33.5,43.9,32.8,43.9z M13.7,6.6c0-1.2,1-2.1,2.1-2.1h17c1.2,0,2.1,1,2.1,2.1v31.4H13.7V6.6z"/>
	<path d="M24.3,39.5c-1.1,0-2,0.9-2,2c0,1.1,0.9,2,2,2c1.1,0,2-0.9,2-2C26.3,40.4,25.4,39.5,24.3,39.5z M24.3,42.4
		c-0.5,0-0.9-0.4-0.9-0.9c0-0.5,0.4-0.9,0.9-0.9c0.5,0,0.9,0.4,0.9,0.9C25.2,42,24.8,42.4,24.3,42.4z"/>
	<path d="M30.8,16.5c-0.4-0.4-0.8-0.7-1.3-0.9c-0.5-0.2-1.1-0.3-1.6-0.3c-0.2,0-0.4,0-0.6,0.1c-0.2,0-0.4,0.1-0.6,0.2
		c-0.2,0.1-0.4,0.2-0.6,0.3c-0.2,0.1-0.4,0.2-0.6,0.4c-0.2,0.2-0.4,0.3-0.6,0.5c-0.2,0.2-0.3,0.4-0.5,0.6c-0.1-0.2-0.3-0.4-0.5-0.6
		c-0.2-0.2-0.4-0.4-0.6-0.5c-0.2-0.1-0.4-0.3-0.6-0.4c-0.2-0.1-0.4-0.2-0.6-0.3c-0.2-0.1-0.4-0.1-0.6-0.2c-0.2,0-0.4-0.1-0.6-0.1
		c-0.6,0-1.1,0.1-1.6,0.3c-0.5,0.2-1,0.5-1.3,0.9c-0.4,0.4-0.7,0.8-0.9,1.3c-0.2,0.5-0.3,1.1-0.3,1.6c0,0.3,0,0.6,0.1,0.9
		c0,0.3,0.1,0.6,0.2,0.9c0.1,0.3,0.2,0.6,0.4,0.9c0.1,0.3,0.3,0.6,0.5,0.9c0.2,0.2,0.3,0.5,0.5,0.7c0.2,0.2,0.4,0.5,0.6,0.7
		c0.2,0.2,0.4,0.5,0.7,0.7c0.2,0.2,0.5,0.5,0.8,0.7c0.5,0.4,0.9,0.8,1.3,1.1c0.4,0.3,0.8,0.6,1.2,0.8c0.3,0.2,0.6,0.4,0.8,0.5
		c0.2,0.1,0.3,0.2,0.4,0.2c0,0,0.1,0,0.1,0c0,0,0.1,0,0.1,0c0,0,0.1,0,0.1,0c0,0,0.1,0,0.1,0c0,0,0.1-0.1,0.3-0.2
		c0.2-0.1,0.5-0.3,0.8-0.5c0.3-0.2,0.7-0.5,1.2-0.8c0.4-0.3,0.9-0.7,1.3-1.1c0.3-0.2,0.5-0.5,0.8-0.7c0.2-0.2,0.5-0.5,0.7-0.7
		c0.2-0.2,0.4-0.5,0.6-0.7c0.2-0.2,0.4-0.5,0.5-0.7c0.2-0.3,0.4-0.6,0.5-0.9c0.1-0.3,0.3-0.6,0.4-0.9c0.1-0.3,0.2-0.6,0.2-0.9
		c0.1-0.3,0.1-0.6,0.1-0.9c0-0.6-0.1-1.1-0.3-1.6C31.5,17.3,31.2,16.9,30.8,16.5z M30.9,21.2c-0.2,0.6-0.5,1.1-0.8,1.6
		c-0.3,0.5-0.7,1-1.1,1.5c-0.4,0.4-0.8,0.9-1.2,1.2c-0.4,0.3-0.7,0.6-1.1,0.9c-0.3,0.3-0.7,0.5-1,0.7c-0.3,0.2-0.6,0.4-0.8,0.5
		c-0.2,0.1-0.4,0.3-0.5,0.3c-0.1-0.1-0.3-0.2-0.5-0.3c-0.2-0.1-0.5-0.3-0.8-0.5c-0.3-0.2-0.6-0.4-1-0.7c-0.3-0.3-0.7-0.6-1-0.9
		c-0.4-0.4-0.8-0.8-1.2-1.2c-0.4-0.4-0.8-0.9-1.1-1.5c-0.3-0.5-0.6-1.1-0.8-1.6c-0.2-0.6-0.3-1.2-0.3-1.8c0-0.5,0.1-0.9,0.3-1.3
		c0.2-0.4,0.4-0.8,0.7-1.1c0.3-0.3,0.7-0.6,1.1-0.7c0.4-0.2,0.9-0.3,1.3-0.3c0.3,0,0.7,0.1,1,0.2c0.3,0.1,0.6,0.3,0.9,0.5
		c0.3,0.2,0.5,0.4,0.7,0.7c0.2,0.3,0.3,0.5,0.4,0.8c0,0.1,0.1,0.1,0.1,0.2c0.1,0.1,0.2,0.1,0.2,0.1c0.1,0,0.2,0,0.2-0.1
		c0.1-0.1,0.1-0.1,0.1-0.2c0.1-0.3,0.2-0.5,0.4-0.8c0.2-0.3,0.4-0.5,0.7-0.7c0.3-0.2,0.6-0.4,0.9-0.5c0.3-0.1,0.7-0.2,1-0.2
		c0.5,0,0.9,0.1,1.3,0.3c0.4,0.2,0.8,0.4,1.1,0.7c0.3,0.3,0.6,0.7,0.7,1.1c0.2,0.4,0.3,0.9,0.3,1.3C31.2,20.1,31.1,20.7,30.9,21.2z"
		/>
</g>
</svg>
