<?xml version="1.0" encoding="utf-8"?>
<!-- Generator: Adobe Illustrator 22.0.1, SVG Export Plug-In . SVG Version: 6.00 Build 0)  -->
<svg version="1.1" id="Layer_1" xmlns="http://www.w3.org/2000/svg" xmlns:xlink="http://www.w3.org/1999/xlink" x="0px" y="0px"
	 viewBox="0 0 47 47" style="enable-background:new 0 0 47 47;" xml:space="preserve">
<g>
	<path d="M23.7,42.3c1,0,1.9-0.8,1.9-1.9c0-1-0.8-1.9-1.9-1.9c-1,0-1.9,0.8-1.9,1.9C21.8,41.5,22.7,42.3,23.7,42.3z M23.7,39.6
		c0.5,0,0.9,0.4,0.9,0.9c0,0.5-0.4,0.9-0.9,0.9c-0.5,0-0.9-0.4-0.9-0.9C22.9,40,23.2,39.6,23.7,39.6z"/>
	<path d="M35,20.8l-0.1-0.1v-6.7l0,0l0,0v-2l0.2-0.1l-0.2-0.2V7.1c0-1.7-1.4-3.1-3.1-3.1H15.6c-1.7,0-3.1,1.4-3.1,3.1v30.1h0v3.5
		c0,1.1,0.5,2,1.4,2.5c0.5,0.3,1.1,0.5,1.7,0.5h16.3c0.7,0,1.4-0.3,2-0.7c0.7-0.6,1.1-1.4,1.1-2.4v-3.5h0v-9.7l0.1-0.1l-0.1-0.1
		v-6.5L35,20.8z M33.9,20.4l-6,3.2l-2.6-1.3l-0.2-3h0l5.1-3.9l3.7-1.2V20.4z M33.9,13.3l-1.6,0.5l1.6-1.2V13.3z M15.6,5h16.3
		c1.1,0,2,0.9,2,2v4.4l-9.1,6.9l-6.7-6.8l-4.3-0.4l-0.1,0.8l3.9,0.4l5.3,5.4l-9-3.2l-0.3,0.6V7.1C13.5,5.9,14.5,5,15.6,5z
		 M13.7,21.1l5.8-0.2c-0.5,0.2-1.1,0.5-1.8,0.8l-0.1,0l-4.1,4.8V15.4l10,3.6c-0.5,0.2-1.2,0.5-2.1,1l-7.8,0.3L13.7,21.1z M33.9,40.7
		c0,0.6-0.2,1.1-0.6,1.4c-0.4,0.4-0.9,0.6-1.4,0.6H15.6c-0.5,0-0.9-0.2-1.3-0.5c-0.5-0.4-0.7-0.9-0.7-1.6v-2.5h20.3V40.7z
		 M13.5,37.2V27.1l0.6,0.3l4.3-5c1.8-0.8,4.3-2,5.7-2.6l0.2,3l9.6,5v9.5H13.5z M33.9,26.7l-5.1-2.6l5.1-2.7V26.7z"/>
</g>
</svg>
