<?xml version="1.0" encoding="utf-8"?>
<!-- Generator: Adobe Illustrator 22.0.1, SVG Export Plug-In . SVG Version: 6.00 Build 0)  -->
<svg version="1.1" id="Layer_1" xmlns="http://www.w3.org/2000/svg" xmlns:xlink="http://www.w3.org/1999/xlink" x="0px" y="0px"
	 viewBox="0 0 47 47" style="enable-background:new 0 0 47 47;" xml:space="preserve">
<g>
	<path d="M40.4,16.9c-0.4-0.5-1-0.9-1.7-0.9h-0.1v1.2h0.1c0.3,0,0.6,0.1,0.8,0.4c0.2,0.2,0.2,0.6,0.1,0.9l-3.5,11.5
		c-0.1,0.4-0.5,0.7-0.9,0.7H17.5l-5.3-17.6H4.9v1.2h6.5l5,16.8v0.9h0.3l1.2,3.9c0.3,0.9,1.1,1.5,2,1.5h16.5v-1.2H19.8
		c-0.4,0-0.8-0.3-0.9-0.7l-1.1-3.5h17.3c0.9,0,1.7-0.6,2-1.5l3.5-11.5C40.9,18.1,40.8,17.4,40.4,16.9z"/>
	<path d="M18.7,38.2c-1.6,0-2.9,1.3-2.9,2.9c0,1.6,1.3,2.9,2.9,2.9c1.6,0,2.9-1.3,2.9-2.9C21.5,39.5,20.2,38.2,18.7,38.2z
		 M18.7,42.8c-1,0-1.7-0.8-1.7-1.7c0-1,0.8-1.7,1.7-1.7c1,0,1.7,0.8,1.7,1.7C20.4,42.1,19.6,42.8,18.7,42.8z"/>
	<path d="M34,38.2c-1.6,0-2.9,1.3-2.9,2.9c0,1.6,1.3,2.9,2.9,2.9c1.6,0,2.9-1.3,2.9-2.9C36.9,39.5,35.6,38.2,34,38.2z M34,42.8
		c-1,0-1.7-0.8-1.7-1.7c0-1,0.8-1.7,1.7-1.7c1,0,1.7,0.8,1.7,1.7C35.7,42.1,35,42.8,34,42.8z"/>
	<path d="M18.5,21.3c0.1,0.5,0.4,0.9,0.8,1.2l7,4.7c0.3,0.2,0.7,0.3,1,0.3c0,0,0,0,0,0c0,0,0,0,0,0c0.1,0,0.2,0,0.4,0
		c0.5-0.1,0.9-0.4,1.2-0.8l1.2-1.7l0,0l8.6-12.8c0.3-0.4,0.4-0.9,0.3-1.4s-0.4-0.9-0.8-1.2l-7-4.7c-0.4-0.3-0.9-0.4-1.4-0.3
		c-0.5,0.1-0.9,0.4-1.2,0.8l-8.6,12.8l0,0l-1.2,1.7c-0.2,0.3-0.3,0.7-0.3,1C18.4,21,18.5,21.1,18.5,21.3z M28.5,25.2L28,26.1
		c0,0,0,0-0.1,0.1c0,0.1-0.1,0.1-0.2,0.2c-0.1,0.1-0.2,0.1-0.3,0.1c-0.1,0-0.2,0-0.3,0c-0.1,0-0.1,0-0.2-0.1c0,0-0.1,0-0.1-0.1
		l-2.5-1.7c0.3-0.1,0.6-0.3,0.8-0.6c0.2-0.3,0.3-0.6,0.3-0.9L28.5,25.2L28.5,25.2z M24,23.2c0,0.1-0.1,0.1-0.2,0l0.1-0.2
		C24,23.1,24,23.2,24,23.2z M23.8,23.1c0,0,0.1-0.1,0.1-0.1c0,0,0,0,0.1,0c0,0,0,0,0,0l-0.1,0.2C23.8,23.2,23.7,23.2,23.8,23.1z
		 M22.6,22.3c-0.2,0.3-0.3,0.6-0.3,0.9l-2.5-1.7c-0.2-0.1-0.3-0.3-0.3-0.5c0,0,0,0,0,0c0-0.2,0-0.4,0.1-0.6l0.6-0.9l3.1,2.1
		C23,21.8,22.8,22,22.6,22.3z M29.4,6c0.2-0.2,0.4-0.3,0.7-0.3c0.2,0,0.3,0,0.4,0.1l7,4.7c0.2,0.1,0.3,0.3,0.3,0.5s0,0.4-0.1,0.6
		l-8.6,12.8l-8.3-5.6L29.4,6z"/>
</g>
</svg>
