<?xml version="1.0" encoding="utf-8"?>
<!-- Generator: Adobe Illustrator 22.0.1, SVG Export Plug-In . SVG Version: 6.00 Build 0)  -->
<svg version="1.1" id="Layer_1" xmlns="http://www.w3.org/2000/svg" xmlns:xlink="http://www.w3.org/1999/xlink" x="0px" y="0px"
	 viewBox="0 0 47 47" style="enable-background:new 0 0 47 47;" xml:space="preserve">
<g>
	<rect x="19.5" y="30" width="1.6" height="0.8"/>
	<rect x="22.5" y="30" width="1.6" height="0.8"/>
	<rect x="25.4" y="30" width="1.6" height="0.8"/>
	<path d="M40.8,4.3H18.1v6.8c-3.5,0.8-6.4,2.9-8.3,6c-0.3,0.4-0.3,0.9-0.2,1.4c0.1,0.4,0.3,0.7,0.6,1c-0.6,1.4-0.9,2.9-0.9,4.4v0.4
		c-1.7,0.4-3,2-3,3.9v4.5c0,1.9,1.4,3.6,3.2,3.9c0,0,0,0.1,0,0.1c0.8,3.4,3.6,5.5,8.3,6.1c0.2,0.2,0.5,0.3,0.8,0.3h2.6
		c0.8,0,1.4-0.6,1.4-1.4c0-0.8-0.6-1.4-1.4-1.4h-2.6c-0.8,0-1.4,0.6-1.4,1.4c0,0.1,0,0.2,0,0.3c-3.5-0.6-5.8-2-6.7-4.4
		c0.1,0,0.3,0.1,0.4,0.1h1.4c0.9,0,1.6-0.7,1.6-1.6V24.9c0-0.9-0.7-1.6-1.6-1.6h-1.4c-0.3,0-0.7,0.1-0.9,0.3c0-1.3,0.3-2.6,0.8-3.8
		c0.2,0,0.3,0.1,0.5,0.1c0.6,0,1.2-0.3,1.6-0.9c1.2-1.9,3-3.4,5.1-4.1V20h4.7v5.3l5.3-5.3h7.7c0.4,1.1,0.7,2.3,0.7,3.6
		c-0.2-0.1-0.5-0.2-0.8-0.2h-1.4c-0.9,0-1.6,0.7-1.6,1.6V36c0,0.9,0.7,1.6,1.6,1.6h1.4c0.6,0,1.2-0.4,1.5-0.9c1.9-0.3,3.3-2,3.3-3.9
		v-4.5c0-1.9-1.4-3.5-3.2-3.9v-0.4c0-1.3-0.2-2.7-0.7-3.9h4.2V4.3z M18.7,41h2.6c0.3,0,0.6,0.3,0.6,0.6c0,0.3-0.3,0.6-0.6,0.6h-2.6
		c-0.3,0-0.6-0.3-0.6-0.6C18.1,41.3,18.4,41,18.7,41z M35.7,36.8h-1.4c-0.5,0-0.9-0.4-0.9-0.8V24.9c0-0.5,0.4-0.8,0.9-0.8h1.4
		c0.3,0,0.6,0.1,0.7,0.4V25c0,0,0.1,0,0.1,0v9.5h0V36c0,0-0.1,0-0.1,0v0.5C36.3,36.7,36,36.8,35.7,36.8z M39.7,28.3v4.5
		c0,1.5-1,2.7-2.4,3.1V25.1C38.7,25.5,39.7,26.8,39.7,28.3z M7.1,32.7v-4.5c0-1.4,1-2.7,2.3-3.1v9.4c0,0.5,0,0.9,0.1,1.3v0
		C8.1,35.4,7.1,34.1,7.1,32.7z M11.1,24.1h1.4c0.5,0,0.9,0.4,0.9,0.8V36c0,0.5-0.4,0.8-0.9,0.8h-1.4c-0.3,0-0.6-0.1-0.7-0.4v-0.6
		c0,0-0.1,0-0.1,0c0-0.1,0-0.1,0-0.2V24.9c0,0,0.1,0,0.1,0v-0.5C10.5,24.2,10.8,24.1,11.1,24.1z M12.3,18.6c-0.3,0.5-1,0.7-1.5,0.4
		c-0.3-0.1-0.4-0.4-0.5-0.7c-0.1-0.3,0-0.6,0.1-0.8c1.7-2.8,4.4-4.8,7.6-5.6v2.2C15.7,14.9,13.6,16.5,12.3,18.6z M40,19.2H27.8
		l-4.3,4.2v-4.2h-4.7V5.1H40V19.2z"/>
	<rect x="23.1" y="10.1" width="12.8" height="0.8"/>
	<rect x="23.1" y="13.6" width="12.8" height="0.8"/>
</g>
</svg>
