<?xml version="1.0" encoding="utf-8"?>
<!-- Generator: Adobe Illustrator 22.0.1, SVG Export Plug-In . SVG Version: 6.00 Build 0)  -->
<svg version="1.1" id="Layer_1" xmlns="http://www.w3.org/2000/svg" xmlns:xlink="http://www.w3.org/1999/xlink" x="0px" y="0px"
	 viewBox="0 0 47 47" style="enable-background:new 0 0 47 47;" xml:space="preserve">
<g>
	<path d="M20.6,30.5l-3,3.1l0.1,0.3c0.5,1.8,0.1,3.6-1.2,4.9c-1.1,1.1-2.7,1.6-4.3,1.4l2.8-2.9l-0.8-3.2L11,33.3l-2.8,2.9
		c-0.3-1.6,0.2-3.2,1.4-4.3c1.3-1.3,3.1-1.8,4.9-1.2l0.3,0.1l3-3.1L17,26.8l-2.6,2.6c-2-0.5-4.2,0.1-5.6,1.6
		c-1.6,1.7-2.2,4.1-1.4,6.3l0.3,0.8l3.7-3.7l1.9,0.5l0.5,2l-3.6,3.7l0.8,0.3c0.7,0.2,1.4,0.4,2.1,0.4c1.6,0,3.1-0.6,4.2-1.8
		c1.5-1.5,2.1-3.7,1.6-5.7l2.6-2.6L20.6,30.5z"/>
	<path d="M28.3,16.8l3-3.1l-0.1-0.3c-0.5-1.8-0.1-3.7,1.2-4.9c1.1-1.1,2.7-1.6,4.3-1.4L34,10l0.8,3.2l3.2,0.9l2.8-2.9
		c0.3,1.6-0.2,3.2-1.4,4.3c-1.3,1.3-3.1,1.8-4.9,1.2l-0.3-0.1l-3,3.1L30,21.2l0.8,0.7l1.2-1.4l2.6-2.6c2,0.5,4.2-0.1,5.6-1.6
		c1.6-1.7,2.2-4.1,1.4-6.3l-0.3-0.8l-3.7,3.7l-1.9-0.5l-0.5-2l3.6-3.7L38,6.4c-2.2-0.8-4.7-0.3-6.3,1.4c-1.5,1.5-2.1,3.7-1.6,5.7
		l-2.6,2.6L26,17.7l0.8,0.7L28.3,16.8z"/>
	<path d="M27.6,20.7c-0.3-0.3-0.7-0.5-1.1-0.4l-0.1-0.1l-0.2,0.2c-0.2,0.1-0.3,0.1-0.4,0.3l0,0L24,18.9l-2,1.9l-7.1-7.6l-0.2-3
		l-4.1-2.8l-2,1.9l2.5,4.2l2.9,0.4l7.1,7.6l-2,1.9l1.6,1.7l0,0c-0.1,0.1-0.2,0.3-0.3,0.4l-0.2,0.2l0.1,0.1c0,0.1,0,0.1,0,0.2
		c0,0.4,0.1,0.7,0.4,1l13.6,14.5c0.3,0.3,0.6,0.4,1,0.4c0.3,0,0.7-0.1,0.9-0.4l4.9-4.6c0.3-0.2,0.4-0.6,0.4-0.9c0-0.4-0.1-0.7-0.4-1
		L27.6,20.7z M10.1,9.6l0.7-0.7l2.9,2l0.1,1.8l-0.2,0.2l-1.8-0.2L10.1,9.6z M20.7,23.5l3.2-3l1,1l-3.2,3L20.7,23.5z M40.4,36.3
		l-4.9,4.6c-0.1,0.1-0.3,0.1-0.4,0L21.5,26.4c-0.1-0.1-0.1-0.1-0.1-0.2l5.2-4.9c0.1,0,0.1,0,0.2,0.1l13.6,14.5
		c0.1,0.1,0.1,0.1,0.1,0.2C40.4,36.1,40.4,36.2,40.4,36.3z"/>
	<rect x="29.4" y="23.6" transform="matrix(0.7298 -0.6837 0.6837 0.7298 -13.8613 29.1297)" width="1.1" height="16.9"/>
	<rect x="31.4" y="21.7" transform="matrix(0.7298 -0.6837 0.6837 0.7298 -11.9886 30.0147)" width="1.1" height="16.9"/>
</g>
</svg>
