<?xml version="1.0" encoding="utf-8"?>
<!-- Generator: Adobe Illustrator 22.0.1, SVG Export Plug-In . SVG Version: 6.00 Build 0)  -->
<svg version="1.1" id="Layer_1" xmlns="http://www.w3.org/2000/svg" xmlns:xlink="http://www.w3.org/1999/xlink" x="0px" y="0px"
	 viewBox="0 0 84 26" style="enable-background:new 0 0 84 26;" xml:space="preserve">
<g>
	<path d="M10.2,15.8L10.2,15.8c-1,1.8-2.4,2.7-4.4,2.7c-0.8,0-1.5-0.2-2.2-0.5c-0.6-0.3-1.1-0.7-1.5-1.3c-0.4-0.5-0.7-1.2-0.9-1.9
		C1.1,14.2,1,13.4,1,12.6c0-1.7,0.4-3.2,1.3-4.3C3.1,7.3,4.4,6.7,6,6.7C7,6.7,7.8,7,8.6,7.5c0.8,0.5,1.3,1.2,1.6,2h0V2.6H11v15.6
		h-0.8V15.8z M7.8,17.3c0.5-0.3,1-0.7,1.3-1.2c0.4-0.5,0.6-1,0.8-1.7c0.2-0.6,0.3-1.2,0.3-1.9c0-0.7-0.1-1.3-0.3-1.9
		C9.8,10.1,9.5,9.5,9.2,9C8.8,8.5,8.4,8.2,7.9,7.9C7.3,7.6,6.7,7.5,6,7.5c-0.7,0-1.3,0.1-1.9,0.4C3.6,8.1,3.2,8.5,2.8,9
		c-0.3,0.5-0.6,1-0.7,1.7c-0.2,0.6-0.2,1.3-0.2,2c0,0.7,0.1,1.3,0.3,1.9c0.2,0.6,0.4,1.2,0.8,1.6c0.4,0.5,0.8,0.9,1.3,1.1
		c0.5,0.3,1.1,0.4,1.8,0.4C6.7,17.8,7.3,17.6,7.8,17.3z"/>
	<path d="M13.2,4.9V2.6h0.8v2.3H13.2z M13.2,18.2V7h0.8v11.2H13.2z"/>
	<path d="M25.3,7v10.7c0,0.4,0,0.9-0.1,1.3c-0.1,0.5-0.3,1-0.6,1.5c-0.3,0.6-0.8,1-1.5,1.4c-0.7,0.4-1.6,0.6-2.7,0.6
		c-1.3,0-2.3-0.3-3.1-0.8c-0.8-0.6-1.2-1.4-1.3-2.7h0.8c0.1,0.9,0.5,1.6,1.1,2.1c0.7,0.5,1.5,0.7,2.5,0.7c0.9,0,1.7-0.2,2.2-0.5
		c0.6-0.3,1-0.7,1.2-1.1c0.3-0.4,0.4-0.9,0.5-1.3c0.1-0.4,0.1-0.8,0.1-1.1v-2.6h0c-0.8,1.7-2.2,2.6-4.1,2.6c-1.6,0-2.8-0.5-3.6-1.5
		c-0.8-1-1.2-2.4-1.2-4c0-0.8,0.1-1.5,0.3-2.1c0.2-0.7,0.5-1.3,0.9-1.8c0.4-0.5,0.9-0.9,1.5-1.2c0.6-0.3,1.3-0.4,2.1-0.4
		c0.9,0,1.7,0.2,2.5,0.7c0.8,0.5,1.3,1.1,1.6,1.9h0V7H25.3z M18.7,7.8c-0.5,0.3-0.9,0.6-1.3,1.1c-0.3,0.5-0.6,1-0.8,1.6
		c-0.2,0.6-0.3,1.2-0.3,1.8c0,1.4,0.4,2.5,1.1,3.5c0.7,0.9,1.7,1.4,3,1.4c1.3,0,2.3-0.5,3-1.4c0.7-0.9,1.1-2.1,1.1-3.4
		c0-0.6-0.1-1.3-0.3-1.8c-0.2-0.6-0.4-1.1-0.8-1.5c-0.7-1-1.8-1.5-3.1-1.5C19.7,7.5,19.2,7.6,18.7,7.8z"/>
	<path d="M27.3,4.9V2.6h0.8v2.3H27.3z M27.3,18.2V7h0.8v11.2H27.3z"/>
	<path d="M29.1,6.9H31V3.5h2.5v3.4h2.3v1.9h-2.3v6c0,0.6,0.1,1,0.2,1.2c0.1,0.2,0.5,0.3,1,0.3c0.5,0,0.8,0,1-0.1v1.9
		c-0.1,0-0.3,0-0.5,0.1c-0.5,0-0.8,0.1-1.1,0.1c-1.2,0-2-0.2-2.5-0.7c-0.4-0.5-0.6-1.2-0.7-2.2V8.8h-1.9V6.9z"/>
	<path d="M37.9,16.9c-1-1.1-1.5-2.5-1.5-4.3c0-1.8,0.5-3.2,1.5-4.3c1-1.1,2.4-1.7,4.2-1.7s3.2,0.6,4.2,1.7c1,1.1,1.5,2.5,1.5,4.3
		c0,1.8-0.5,3.2-1.5,4.3c-1,1.1-2.4,1.7-4.2,1.7S38.9,18,37.9,16.9z M43.5,16.2c0.4-0.2,0.7-0.5,1-0.9c0.3-0.4,0.5-0.8,0.6-1.3
		c0.1-0.5,0.2-1,0.2-1.5c0-0.5-0.1-1-0.2-1.5c-0.1-0.5-0.3-0.9-0.6-1.3c-0.3-0.4-0.6-0.7-1-0.9c-0.4-0.2-0.9-0.3-1.4-0.3
		c-0.5,0-1,0.1-1.4,0.3c-0.4,0.2-0.7,0.5-1,0.9c-0.3,0.4-0.5,0.8-0.6,1.3c-0.1,0.5-0.2,1-0.2,1.5c0,0.5,0.1,1,0.2,1.5
		c0.1,0.5,0.3,0.9,0.6,1.3c0.3,0.4,0.6,0.7,1,0.9c0.4,0.2,0.9,0.3,1.4,0.3C42.6,16.6,43.1,16.5,43.5,16.2z"/>
	<path d="M59.1,18.2h-2.4v-1.6h0c-0.3,0.6-0.8,1-1.4,1.4c-0.6,0.3-1.2,0.5-1.9,0.5c-1.5,0-2.5-0.4-3.2-1.1c-0.7-0.7-1-1.8-1-3.3V6.9
		h2.5v6.9c0,1,0.2,1.7,0.5,2.1c0.4,0.4,0.9,0.6,1.6,0.6c1,0,1.7-0.3,2.1-0.8c0.4-0.6,0.7-1.3,0.7-2.3V6.9h2.5V18.2z"/>
	<path d="M68.7,10.7c-0.1-0.7-0.4-1.2-0.8-1.6c-0.5-0.4-1-0.6-1.7-0.6c-0.4,0-0.7,0.1-1.1,0.2c-0.4,0.1-0.7,0.3-1,0.6
		c-0.3,0.3-0.6,0.7-0.7,1.3c-0.2,0.5-0.3,1.2-0.3,2c0,0.5,0.1,1,0.2,1.4c0.1,0.5,0.3,0.9,0.5,1.2c0.2,0.4,0.6,0.7,0.9,0.9
		c0.4,0.2,0.8,0.3,1.4,0.3c0.7,0,1.3-0.2,1.8-0.7c0.5-0.5,0.8-1.1,0.9-1.9h2.5c-0.2,1.5-0.8,2.6-1.7,3.4c-0.9,0.8-2.1,1.2-3.5,1.2
		c-1.7,0-3.1-0.5-4-1.6c-1-1.1-1.5-2.5-1.5-4.2c0-1.8,0.5-3.2,1.4-4.4c1-1.1,2.3-1.7,4.1-1.7c1.4,0,2.6,0.3,3.5,1
		c0.9,0.7,1.5,1.7,1.6,3H68.7z"/>
	<path d="M72.6,2.6h2.5v5.8h0c0.3-0.5,0.8-1,1.4-1.3c0.6-0.3,1.3-0.5,2-0.5c1.3,0,2.2,0.3,2.9,1c0.7,0.7,1.1,1.6,1.1,2.9v7.8H80
		v-7.1c0-0.9-0.2-1.5-0.6-1.9c-0.4-0.4-0.9-0.6-1.7-0.6c-0.8,0-1.5,0.3-2,0.9s-0.8,1.3-0.8,2.1v6.7h-2.5V2.6z"/>
</g>
</svg>
